<svg width="44" height="44" viewBox="0 0 44 44" fill="none" xmlns="http://www.w3.org/2000/svg">
<path fill-rule="evenodd" clip-rule="evenodd" d="M22 3.66675C17.0206 3.66675 16.3973 3.68875 14.4411 3.77675C12.4905 3.86658 11.1576 4.17641 9.99163 4.62925C8.76783 5.08908 7.65914 5.81048 6.74296 6.74308C5.81035 7.65926 5.08896 8.76795 4.62913 9.99175C4.17629 11.1577 3.86646 12.4906 3.77663 14.4412C3.68679 16.3974 3.66663 17.0207 3.66663 22.0001C3.66663 26.9794 3.68679 27.6027 3.77663 29.5589C3.86646 31.5096 4.17629 32.8424 4.62913 34.0084C5.08896 35.2322 5.81035 36.3409 6.74296 37.2571C7.65914 38.1897 8.76783 38.9111 9.99163 39.3709C11.1576 39.8237 12.4905 40.1336 14.4411 40.2234C16.3973 40.3114 17.0206 40.3334 22 40.3334C26.9793 40.3334 27.6026 40.3114 29.5588 40.2234C31.5095 40.1336 32.8423 39.8237 34.0083 39.3709C35.2321 38.9111 36.3408 38.1897 37.257 37.2571C38.1896 36.3409 38.911 35.2322 39.3708 34.0084C39.8236 32.8424 40.1335 31.5096 40.2233 29.5589C40.3113 27.6027 40.3333 26.9794 40.3333 22.0001C40.3333 17.0207 40.3113 16.3974 40.2233 14.4412C40.1335 12.4906 39.8236 11.1577 39.3708 9.99175C38.911 8.76795 38.1896 7.65926 37.257 6.74308C36.3408 5.81048 35.2321 5.08908 34.0083 4.62925C32.8423 4.17641 31.5095 3.86658 29.5588 3.77675C27.6026 3.68875 26.9793 3.66675 22 3.66675ZM22 6.97041C26.895 6.97041 27.4743 6.98875 29.4066 7.07675C31.196 7.15925 32.1658 7.45625 32.813 7.70741C33.6673 8.04108 34.2796 8.43892 34.9213 9.07875C35.563 9.72042 35.959 10.3327 36.2926 11.1871C36.542 11.8342 36.8426 12.8041 36.9233 14.5916C37.0113 16.5257 37.0296 17.1032 37.0296 22.0001C37.0296 26.8951 37.0113 27.4744 36.9233 29.4067C36.8408 31.1961 36.542 32.1659 36.2926 32.8131C35.9987 33.6095 35.5301 34.3299 34.9213 34.9214C34.2796 35.5631 33.6673 35.9591 32.813 36.2927C32.1658 36.5421 31.196 36.8427 29.4085 36.9234C27.4761 37.0114 26.8968 37.0297 22 37.0297C17.105 37.0297 16.5238 37.0114 14.5933 36.9234C12.804 36.8409 11.8341 36.5421 11.187 36.2927C10.3906 35.9988 9.67017 35.5302 9.07863 34.9214C8.4698 34.3299 8.00121 33.6095 7.70729 32.8131C7.45613 32.1659 7.15729 31.1961 7.07663 29.4086C6.98863 27.4744 6.97029 26.8969 6.97029 22.0001C6.97029 17.1051 6.98863 16.5257 7.07663 14.5934C7.15913 12.8041 7.45613 11.8342 7.70729 11.1871C8.04096 10.3327 8.43879 9.72042 9.07863 9.07875C9.72029 8.43708 10.3326 8.04108 11.187 7.70741C11.8341 7.45625 12.804 7.15741 14.5915 7.07675C16.5256 6.98875 17.1031 6.97041 22 6.97041ZM22 28.1106C20.3794 28.1106 18.8251 27.4668 17.6792 26.3209C16.5332 25.1749 15.8895 23.6207 15.8895 22.0001C15.8895 20.3795 16.5332 18.8252 17.6792 17.6793C18.8251 16.5334 20.3794 15.8896 22 15.8896C23.6206 15.8896 25.1748 16.5334 26.3207 17.6793C27.4667 18.8252 28.1105 20.3795 28.1105 22.0001C28.1105 23.6207 27.4667 25.1749 26.3207 26.3209C25.1748 27.4668 23.6206 28.1106 22 28.1106ZM22 12.5859C20.7637 12.5859 19.5395 12.8294 18.3973 13.3025C17.2551 13.7756 16.2173 14.4691 15.3431 15.3433C14.469 16.2174 13.7755 17.2553 13.3024 18.3974C12.8293 19.5396 12.5858 20.7638 12.5858 22.0001C12.5858 23.2364 12.8293 24.4605 13.3024 25.6027C13.7755 26.7449 14.469 27.7827 15.3431 28.6569C16.2173 29.5311 17.2551 30.2245 18.3973 30.6976C19.5395 31.1707 20.7637 31.4142 22 31.4142C24.4968 31.4142 26.8913 30.4224 28.6568 28.6569C30.4223 26.8914 31.4141 24.4969 31.4141 22.0001C31.4141 19.5033 30.4223 17.1088 28.6568 15.3433C26.8913 13.5778 24.4968 12.5859 22 12.5859ZM33.9863 12.2137C33.9863 12.5027 33.9294 12.7887 33.8188 13.0557C33.7083 13.3226 33.5462 13.5651 33.3419 13.7694C33.1376 13.9737 32.8951 14.1357 32.6282 14.2463C32.3613 14.3568 32.0752 14.4137 31.7863 14.4137C31.4974 14.4137 31.2113 14.3568 30.9444 14.2463C30.6775 14.1357 30.4349 13.9737 30.2307 13.7694C30.0264 13.5651 29.8643 13.3226 29.7538 13.0557C29.6432 12.7887 29.5863 12.5027 29.5863 12.2137C29.5863 11.6303 29.8181 11.0707 30.2307 10.6581C30.6432 10.2455 31.2028 10.0137 31.7863 10.0137C32.3698 10.0137 32.9293 10.2455 33.3419 10.6581C33.7545 11.0707 33.9863 11.6303 33.9863 12.2137Z" fill="white"/>
</svg>
