<svg width="37" height="37" viewBox="0 0 37 37" fill="none" xmlns="http://www.w3.org/2000/svg">
<g clip-path="url(#clip0_53_33)">
<path d="M28.3281 0H8.67188C3.88253 0 0 3.88253 0 8.67188V28.3281C0 33.1175 3.88253 37 8.67188 37H28.3281C33.1175 37 37 33.1175 37 28.3281V8.67188C37 3.88253 33.1175 0 28.3281 0Z" fill="white"/>
<path d="M28.3281 0H8.67188C3.88253 0 0 3.88253 0 8.67188V28.3281C0 33.1175 3.88253 37 8.67188 37H28.3281C33.1175 37 37 33.1175 37 28.3281V8.67188C37 3.88253 33.1175 0 28.3281 0Z" fill="white"/>
<path d="M26.6971 31.4623H30.9275C31.0808 31.4623 31.2279 31.4014 31.3363 31.293C31.4447 31.1846 31.5056 31.0376 31.5056 30.8843L31.5078 21.9462C31.5078 17.2745 30.5012 13.6836 25.0418 13.6836C22.9664 13.6065 21.0094 14.6763 19.9533 16.4627C19.9481 16.4714 19.9402 16.4781 19.9309 16.4819C19.9215 16.4857 19.9112 16.4863 19.9014 16.4837C19.8917 16.481 19.8831 16.4753 19.8769 16.4673C19.8707 16.4593 19.8673 16.4495 19.8673 16.4394V14.693C19.8673 14.5397 19.8064 14.3927 19.6979 14.2843C19.5895 14.1758 19.4425 14.1149 19.2891 14.1149H15.2745C15.1212 14.1149 14.9741 14.1758 14.8657 14.2843C14.7573 14.3927 14.6964 14.5397 14.6964 14.693V30.8834C14.6964 31.0368 14.7573 31.1838 14.8657 31.2922C14.9741 31.4007 15.1212 31.4616 15.2745 31.4616H19.5046C19.658 31.4616 19.805 31.4007 19.9134 31.2922C20.0219 31.1838 20.0828 31.0368 20.0828 30.8834V22.8803C20.0828 20.6174 20.512 18.4259 23.3175 18.4259C26.0831 18.4259 26.119 21.0153 26.119 23.0269V30.8842C26.119 31.0375 26.1799 31.1845 26.2883 31.293C26.3967 31.4014 26.5438 31.4623 26.6971 31.4623ZM5.49219 8.61811C5.49219 10.3328 6.90382 11.7437 8.61869 11.7437C10.3331 11.7436 11.7439 10.3318 11.7439 8.61739C11.7436 6.90296 10.3327 5.49219 8.61811 5.49219C6.9031 5.49219 5.49219 6.90339 5.49219 8.61811ZM6.49798 31.4623H10.7338C10.8871 31.4623 11.0341 31.4014 11.1426 31.293C11.251 31.1845 11.3119 31.0375 11.3119 30.8842V14.693C11.3119 14.5397 11.251 14.3927 11.1426 14.2843C11.0341 14.1758 10.8871 14.1149 10.7338 14.1149H6.49798C6.34465 14.1149 6.1976 14.1758 6.08918 14.2843C5.98076 14.3927 5.91986 14.5397 5.91986 14.693V30.8842C5.91986 31.0375 5.98076 31.1845 6.08918 31.293C6.1976 31.4014 6.34465 31.4623 6.49798 31.4623Z" fill="black"/>
</g>
<defs>
<clipPath id="clip0_53_33">
<rect width="37" height="37" fill="white"/>
</clipPath>
</defs>
</svg>
